<svg xmlns="http://www.w3.org/2000/svg" width="24" height="24" fill="none"><path fill="#161219" d="m12 14.555-8.943 8.943c-.335.335-.76.502-1.278.502-.517 0-.942-.167-1.277-.502-.335-.335-.502-.76-.502-1.277 0-.518.167-.943.502-1.278L9.445 12 .502 3.057C.167 2.722 0 2.297 0 1.779 0 1.262.167.837.502.502.837.167 1.262 0 1.779 0c.518 0 .943.167 1.278.502L12 9.445 20.943.502C21.278.167 21.703 0 22.22 0c.518 0 .944.167 1.278.502.335.335.502.76.502 1.277 0 .518-.167.943-.502 1.278L14.555 12l8.943 8.943c.335.335.502.76.502 1.277 0 .518-.167.944-.502 1.278-.335.335-.76.502-1.277.502-.518 0-.943-.167-1.278-.502L12 14.555Z"/></svg>